<svg width="145" height="50" viewBox="0 0 145 50" fill="none" xmlns="http://www.w3.org/2000/svg">
<path d="M44.2642 32V17.4545H50.0881C51.1581 17.4545 52.0507 17.6132 52.7656 17.9304C53.4806 18.2476 54.018 18.688 54.3778 19.2514C54.7377 19.8101 54.9176 20.4541 54.9176 21.1832C54.9176 21.7514 54.804 22.2509 54.5767 22.6818C54.3494 23.108 54.0369 23.4583 53.6392 23.733C53.2462 24.0028 52.7964 24.1946 52.2898 24.3082V24.4503C52.8438 24.474 53.3622 24.6302 53.8452 24.919C54.3329 25.2079 54.7282 25.6127 55.0312 26.1335C55.3343 26.6496 55.4858 27.2652 55.4858 27.9801C55.4858 28.7519 55.294 29.4408 54.9105 30.0469C54.5317 30.6482 53.9706 31.1241 53.2273 31.4744C52.4839 31.8248 51.5677 32 50.4787 32H44.2642ZM47.3395 29.4858H49.8466C50.7036 29.4858 51.3286 29.3224 51.7216 28.9957C52.1146 28.6643 52.3111 28.224 52.3111 27.6747C52.3111 27.2723 52.214 26.9171 52.0199 26.6094C51.8258 26.3016 51.5488 26.0601 51.1889 25.8849C50.8338 25.7098 50.41 25.6222 49.9176 25.6222H47.3395V29.4858ZM47.3395 23.5412H49.6193C50.0407 23.5412 50.4148 23.4678 50.7415 23.321C51.0729 23.1695 51.3333 22.9564 51.5227 22.6818C51.7169 22.4072 51.8139 22.0781 51.8139 21.6946C51.8139 21.169 51.6269 20.7453 51.2528 20.4233C50.8835 20.1013 50.358 19.9403 49.6761 19.9403H47.3395V23.5412ZM70.8533 24.7273C70.8533 26.3134 70.5527 27.6629 69.9513 28.7756C69.3548 29.8883 68.5404 30.7382 67.5082 31.3253C66.4807 31.9077 65.3254 32.1989 64.0423 32.1989C62.7496 32.1989 61.5896 31.9053 60.5621 31.3182C59.5347 30.7311 58.7227 29.8812 58.1261 28.7685C57.5295 27.6558 57.2312 26.3087 57.2312 24.7273C57.2312 23.1411 57.5295 21.7917 58.1261 20.679C58.7227 19.5663 59.5347 18.7187 60.5621 18.1364C61.5896 17.5492 62.7496 17.2557 64.0423 17.2557C65.3254 17.2557 66.4807 17.5492 67.5082 18.1364C68.5404 18.7187 69.3548 19.5663 69.9513 20.679C70.5527 21.7917 70.8533 23.1411 70.8533 24.7273ZM67.7354 24.7273C67.7354 23.6998 67.5816 22.8333 67.2738 22.1278C66.9708 21.4223 66.5423 20.8873 65.9883 20.5227C65.4343 20.1581 64.7856 19.9759 64.0423 19.9759C63.2989 19.9759 62.6502 20.1581 62.0962 20.5227C61.5423 20.8873 61.1114 21.4223 60.8036 22.1278C60.5006 22.8333 60.3491 23.6998 60.3491 24.7273C60.3491 25.7547 60.5006 26.6212 60.8036 27.3267C61.1114 28.0322 61.5423 28.5672 62.0962 28.9318C62.6502 29.2964 63.2989 29.4787 64.0423 29.4787C64.7856 29.4787 65.4343 29.2964 65.9883 28.9318C66.5423 28.5672 66.9708 28.0322 67.2738 27.3267C67.5816 26.6212 67.7354 25.7547 67.7354 24.7273ZM71.9134 19.9901V17.4545H83.8594V19.9901H79.4062V32H76.3665V19.9901H71.9134ZM86.5565 32H83.261L88.2823 17.4545H92.2454L97.2596 32H93.9641L90.3207 20.7784H90.207L86.5565 32ZM86.3505 26.2827H94.1346V28.6832H86.3505V26.2827ZM111.176 17.4545V32H108.52L102.192 22.8452H102.086V32H99.0103V17.4545H101.709L107.988 26.6023H108.115V17.4545H111.176ZM116.793 17.4545V32H113.717V17.4545H116.793ZM127.213 21.6378C127.157 21.0649 126.913 20.6198 126.482 20.3026C126.051 19.9853 125.466 19.8267 124.728 19.8267C124.226 19.8267 123.802 19.8977 123.456 20.0398C123.111 20.1771 122.846 20.3688 122.661 20.6151C122.481 20.8613 122.391 21.1406 122.391 21.4531C122.382 21.7135 122.436 21.9408 122.554 22.1349C122.677 22.3291 122.846 22.4972 123.059 22.6392C123.272 22.7765 123.518 22.8973 123.797 23.0014C124.077 23.1009 124.375 23.1861 124.692 23.2571L125.999 23.5696C126.633 23.7116 127.216 23.901 127.746 24.1378C128.276 24.3745 128.736 24.6657 129.124 25.0114C129.512 25.357 129.813 25.7642 130.026 26.233C130.244 26.7017 130.355 27.2391 130.36 27.8452C130.355 28.7353 130.128 29.5071 129.678 30.1605C129.233 30.8092 128.589 31.3134 127.746 31.6733C126.908 32.0284 125.897 32.206 124.713 32.206C123.539 32.206 122.516 32.026 121.645 31.6662C120.779 31.3063 120.102 30.7737 119.614 30.0682C119.131 29.358 118.878 28.4796 118.854 27.4332H121.83C121.863 27.9209 122.003 28.3281 122.249 28.6548C122.5 28.9768 122.834 29.2206 123.25 29.3864C123.672 29.5473 124.148 29.6278 124.678 29.6278C125.199 29.6278 125.651 29.5521 126.034 29.4006C126.423 29.2491 126.723 29.0384 126.936 28.7685C127.15 28.4986 127.256 28.1884 127.256 27.8381C127.256 27.5114 127.159 27.2367 126.965 27.0142C126.775 26.7917 126.496 26.6023 126.127 26.446C125.762 26.2898 125.315 26.1477 124.784 26.0199L123.201 25.6222C121.974 25.3239 121.006 24.8575 120.296 24.223C119.586 23.5885 119.233 22.7339 119.238 21.6591C119.233 20.7784 119.467 20.009 119.941 19.3509C120.419 18.6927 121.075 18.179 121.908 17.8097C122.741 17.4403 123.688 17.2557 124.749 17.2557C125.828 17.2557 126.771 17.4403 127.576 17.8097C128.385 18.179 129.015 18.6927 129.465 19.3509C129.915 20.009 130.147 20.7713 130.161 21.6378H127.213ZM131.874 19.9901V17.4545H143.82V19.9901H139.367V32H136.327V19.9901H131.874Z" fill="white"/>
<path d="M44.1449 48V38.5455H47.3395C48.0812 38.5455 48.6875 38.6793 49.1584 38.9471C49.6323 39.2118 49.9832 39.5703 50.2109 40.0227C50.4387 40.4751 50.5526 40.9799 50.5526 41.5369C50.5526 42.094 50.4387 42.6003 50.2109 43.0558C49.9863 43.5112 49.6385 43.8744 49.1676 44.1452C48.6967 44.413 48.0935 44.5469 47.358 44.5469H45.0682V43.5312H47.321C47.8288 43.5312 48.2366 43.4435 48.5444 43.2681C48.8522 43.0927 49.0753 42.8557 49.2138 42.5572C49.3554 42.2556 49.4261 41.9155 49.4261 41.5369C49.4261 41.1584 49.3554 40.8198 49.2138 40.5213C49.0753 40.2228 48.8506 39.9889 48.5398 39.8196C48.2289 39.6473 47.8165 39.5611 47.3026 39.5611H45.2898V48H44.1449ZM52.3968 48V38.5455H55.5914C56.3301 38.5455 56.9364 38.6716 57.4103 38.924C57.8843 39.1733 58.2351 39.5165 58.4629 39.9535C58.6906 40.3905 58.8045 40.8875 58.8045 41.4446C58.8045 42.0017 58.6906 42.4956 58.4629 42.9265C58.2351 43.3574 57.8858 43.6959 57.415 43.9421C56.9441 44.1853 56.3424 44.3068 55.6099 44.3068H53.0247V43.2727H55.573C56.0777 43.2727 56.484 43.1989 56.7917 43.0511C57.1026 42.9034 57.3272 42.6941 57.4657 42.4233C57.6073 42.1494 57.6781 41.8232 57.6781 41.4446C57.6781 41.0661 57.6073 40.7352 57.4657 40.4521C57.3242 40.1689 57.098 39.9504 56.7871 39.7965C56.4763 39.6396 56.0654 39.5611 55.5545 39.5611H53.5417V48H52.3968ZM56.8471 43.7528L59.1738 48H57.8443L55.5545 43.7528H56.8471ZM60.7123 48V38.5455H66.4182V39.5611H61.8572V42.7557H66.1228V43.7713H61.8572V46.9844H66.4921V48H60.7123ZM72.3966 42.7649V43.7805H68.2602V42.7649H72.3966ZM74.4613 48V38.5455H77.6559C78.3976 38.5455 79.0039 38.6793 79.4748 38.9471C79.9487 39.2118 80.2996 39.5703 80.5273 40.0227C80.7551 40.4751 80.869 40.9799 80.869 41.5369C80.869 42.094 80.7551 42.6003 80.5273 43.0558C80.3027 43.5112 79.9549 43.8744 79.484 44.1452C79.0131 44.413 78.4099 44.5469 77.6744 44.5469H75.3846V43.5312H77.6374C78.1452 43.5312 78.553 43.4435 78.8608 43.2681C79.1686 43.0927 79.3917 42.8557 79.5302 42.5572C79.6718 42.2556 79.7425 41.9155 79.7425 41.5369C79.7425 41.1584 79.6718 40.8198 79.5302 40.5213C79.3917 40.2228 79.167 39.9889 78.8562 39.8196C78.5453 39.6473 78.1329 39.5611 77.619 39.5611H75.6062V48H74.4613ZM82.1362 48H80.9359L84.4075 38.5455H85.5893L89.0609 48H87.8606L85.0353 40.0412H84.9615L82.1362 48ZM82.5794 44.3068H87.4174V45.3224H82.5794V44.3068ZM90.5336 48V38.5455H93.7282C94.4668 38.5455 95.0731 38.6716 95.5471 38.924C96.021 39.1733 96.3719 39.5165 96.5996 39.9535C96.8274 40.3905 96.9412 40.8875 96.9412 41.4446C96.9412 42.0017 96.8274 42.4956 96.5996 42.9265C96.3719 43.3574 96.0226 43.6959 95.5517 43.9421C95.0808 44.1853 94.4791 44.3068 93.7466 44.3068H91.1614V43.2727H93.7097C94.2144 43.2727 94.6207 43.1989 94.9284 43.0511C95.2393 42.9034 95.464 42.6941 95.6025 42.4233C95.744 42.1494 95.8148 41.8232 95.8148 41.4446C95.8148 41.0661 95.744 40.7352 95.6025 40.4521C95.4609 40.1689 95.2347 39.9504 94.9238 39.7965C94.613 39.6396 94.2021 39.5611 93.6912 39.5611H91.6784V48H90.5336ZM94.9838 43.7528L97.3105 48H95.981L93.6912 43.7528H94.9838ZM98.3319 39.5611V38.5455H105.423V39.5611H102.45V48H101.305V39.5611H98.3319ZM106.377 38.5455H107.688L110.311 42.9588H110.421L113.044 38.5455H114.355L110.938 44.1037V48H109.794V44.1037L106.377 38.5455ZM119.492 48V38.5455H122.797C123.456 38.5455 123.999 38.6593 124.427 38.8871C124.854 39.1117 125.173 39.4149 125.382 39.7965C125.591 40.1751 125.696 40.5952 125.696 41.0568C125.696 41.4631 125.624 41.7985 125.479 42.0632C125.338 42.3279 125.15 42.5372 124.916 42.6911C124.685 42.8449 124.434 42.9588 124.163 43.0327V43.125C124.453 43.1435 124.744 43.245 125.036 43.4297C125.328 43.6143 125.573 43.879 125.77 44.2237C125.967 44.5684 126.065 44.9901 126.065 45.4886C126.065 45.9626 125.958 46.3888 125.742 46.7674C125.527 47.146 125.187 47.446 124.722 47.6676C124.257 47.8892 123.653 48 122.908 48H119.492ZM120.636 46.9844H122.908C123.656 46.9844 124.187 46.8397 124.5 46.5504C124.817 46.258 124.976 45.9041 124.976 45.4886C124.976 45.1686 124.894 44.8731 124.731 44.6023C124.568 44.3284 124.336 44.1098 124.034 43.9467C123.733 43.7805 123.376 43.6974 122.963 43.6974H120.636V46.9844ZM120.636 42.7003H122.76C123.105 42.7003 123.416 42.6326 123.693 42.4972C123.973 42.3617 124.194 42.1709 124.357 41.9247C124.524 41.6785 124.607 41.3892 124.607 41.0568C124.607 40.6413 124.462 40.2889 124.173 39.9996C123.883 39.7073 123.425 39.5611 122.797 39.5611H120.636V42.7003ZM128.334 48H127.134L130.606 38.5455H131.788L135.259 48H134.059L131.234 40.0412H131.16L128.334 48ZM128.778 44.3068H133.616V45.3224H128.778V44.3068ZM136.732 48V38.5455H139.926C140.665 38.5455 141.271 38.6716 141.745 38.924C142.219 39.1733 142.57 39.5165 142.798 39.9535C143.026 40.3905 143.139 40.8875 143.139 41.4446C143.139 42.0017 143.026 42.4956 142.798 42.9265C142.57 43.3574 142.221 43.6959 141.75 43.9421C141.279 44.1853 140.677 44.3068 139.945 44.3068H137.36V43.2727H139.908C140.413 43.2727 140.819 43.1989 141.127 43.0511C141.438 42.9034 141.662 42.6941 141.801 42.4233C141.942 42.1494 142.013 41.8232 142.013 41.4446C142.013 41.0661 141.942 40.7352 141.801 40.4521C141.659 40.1689 141.433 39.9504 141.122 39.7965C140.811 39.6396 140.4 39.5611 139.889 39.5611H137.877V48H136.732ZM141.182 43.7528L143.509 48H142.179L139.889 43.7528H141.182Z" fill="white"/>
<path d="M17.1396 43.8958L26.2554 48.263H8.02381L17.1396 43.8958Z" fill="white"/>
<rect x="15.124" y="26.875" width="4.03125" height="19.2604" fill="white"/>
<rect y="10.857" width="3.59942" height="25.2594" rx="1.79971" transform="rotate(-40.6883 0 10.857)" fill="white"/>
<rect x="31.5922" y="8.51041" width="3.59942" height="25.2594" rx="1.79971" transform="rotate(40.69 31.5922 8.51041)" fill="white"/>
<path d="M17.1396 24.6354L29.7466 10.1901H4.53264L17.1396 24.6354Z" fill="white"/>
<path fill-rule="evenodd" clip-rule="evenodd" d="M43 9.63021C43 14.9488 38.6884 19.2604 33.3698 19.2604C28.0512 19.2604 23.7396 14.9488 23.7396 9.63021C23.7396 4.31159 28.0512 0 33.3698 0C38.6884 0 43 4.31159 43 9.63021ZM34.2657 5.15105C34.2657 7.00638 33.8646 8.51043 33.3698 8.51043C32.8751 8.51043 32.474 7.00638 32.474 5.15105C32.474 3.29572 32.8751 1.79168 33.3698 1.79168C33.8646 1.79168 34.2657 3.29572 34.2657 5.15105ZM32.0354 9.41559C32.3852 9.06575 31.6053 7.71863 30.2934 6.40671C28.9815 5.09479 27.6344 4.31488 27.2845 4.66472C26.9347 5.01456 27.7146 6.36169 29.0265 7.67361C30.3384 8.98552 31.6855 9.76544 32.0354 9.41559ZM37.908 7.6736C36.5961 8.98551 35.2489 9.76543 34.8991 9.41558C34.5492 9.06574 35.3292 7.71861 36.6411 6.4067C37.953 5.09478 39.3001 4.31487 39.65 4.66471C39.9998 5.01455 39.2199 6.36168 37.908 7.6736ZM33.5646 11.3928C33.0699 11.3928 32.6688 12.8968 32.6688 14.7522C32.6688 16.6075 33.0699 18.1115 33.5646 18.1115C34.0594 18.1115 34.4605 16.6075 34.4605 14.7522C34.4605 12.8968 34.0594 11.3928 33.5646 11.3928ZM36.641 13.4965C35.3291 12.1846 34.5492 10.8375 34.899 10.4876C35.2489 10.1378 36.596 10.9177 37.9079 12.2296C39.2198 13.5415 39.9998 14.8887 39.6499 15.2385C39.3001 15.5883 37.9529 14.8084 36.641 13.4965ZM32.0354 10.4876C31.6855 10.1378 30.3384 10.9177 29.0265 12.2296C27.7146 13.5415 26.9346 14.8887 27.2845 15.2385C27.6343 15.5883 28.9815 14.8084 30.2934 13.4965C31.6053 12.1846 32.3852 10.8375 32.0354 10.4876Z" fill="white"/>
</svg>
