<svg version="1.0" xmlns="http://www.w3.org/2000/svg" width="728.000000ptpx" height="348.000000ptpx" viewBox="0 0 728.000000 348.000000" preserveAspectRatio="xMidYMid meet" transform="rotate(0) scale(1, 1)">

<g transform="translate(0.000000,348.000000) scale(0.100000,-0.100000)" fill="#ffff00" stroke="none">
<path d="M5225 3469 c-11 -5 -274 -56 -585 -114 -311 -59 -693 -130 -850 -159&#10;-320 -60 -385 -81 -440 -137 -21 -22 -42 -39 -47 -39 -5 0 -38 15 -73 34 -48&#10;25 -91 38 -166 50 -139 22 -173 20 -299 -14 -135 -36 -233 -46 -306 -31 -30 7&#10;-100 15 -156 18 -90 5 -110 3 -163 -16 -92 -34 -175 -88 -231 -150 -60 -67&#10;-147 -206 -155 -250 -4 -17 -9 -31 -12 -31 -3 0 -27 21 -54 46 -64 60 -146 97&#10;-226 102 -52 4 -76 -1 -134 -23 -70 -28 -72 -28 -232 -21 -160 7 -162 7 -261&#10;-23 -118 -36 -115 -36 -115 -13 0 28 -29 62 -53 62 -35 0 -48 -14 -54 -59 -4&#10;-31 -10 -41 -24 -41 -13 0 -20 10 -25 38 -9 49 -29 88 -51 96 -23 9 -154 -14&#10;-172 -30 -12 -11 -18 -9 -38 12 -19 20 -26 23 -43 14 -11 -6 -20 -18 -20 -27&#10;0 -14 19 -79 26 -91 1 -2 11 1 22 7 16 8 26 4 56 -24 46 -42 43 -64 -16 -115&#10;-35 -31 -298 -205 -321 -213 -10 -3 11 -102 45 -218 19 -64 22 -69 79 -104 68&#10;-42 124 -110 140 -169 21 -79 29 -85 26 -18 -4 69 3 75 45 37 23 -20 30 -37&#10;38 -95 11 -78 8 -90 -21 -90 -23 0 -24 -11 -4 -50 16 -31 31 -159 22 -184 -12&#10;-30 -37 -6 -37 34 0 68 -16 84 -61 59 -19 -10 -20 -12 -4 -29 15 -16 15 -40 6&#10;-251 -17 -373 -17 -350 2 -364 16 -11 17 -33 11 -231 l-6 -219 51 -50 51 -49&#10;0 -126 0 -127 108 -32 c59 -18 117 -38 129 -44 19 -9 26 -6 43 13 11 13 20 26&#10;20 29 0 3 9 48 20 99 20 97 49 174 76 204 15 15 14 23 -5 80 -19 53 -80 494&#10;-81 574 0 17 48 51 242 170 223 137 252 158 349 254 58 58 130 141 159 185 60&#10;89 136 238 170 333 13 34 27 65 31 68 5 3 9 -16 9 -42 0 -27 11 -74 25 -110&#10;81 -202 96 -383 55 -659 -22 -148 -23 -170 -12 -295 19 -227 62 -334 206 -509&#10;56 -68 70 -78 163 -123 131 -63 237 -86 468 -99 327 -20 499 6 691 102 184 92&#10;282 189 365 364 64 134 75 215 89 640 8 247 9 265 38 360 16 55 41 123 55 150&#10;25 49 25 52 17 185 -18 273 -61 442 -155 602 -25 42 -45 81 -45 87 0 5 39 12&#10;88 16 204 15 272 25 359 51 51 15 96 24 100 20 12 -12 7 -495 -6 -586 -12 -78&#10;-11 -99 13 -257 31 -206 31 -200 6 -208 -28 -9 -42 -66 -38 -155 l3 -75 33 3&#10;33 4 -3 -44 c-3 -39 -7 -45 -43 -63 l-40 -20 36 -3 c37 -3 37 -3 44 -60 3 -31&#10;9 -66 11 -78 4 -16 -3 -24 -35 -39 -23 -10 -41 -21 -41 -26 0 -4 18 -46 40&#10;-94 22 -48 40 -92 40 -97 0 -6 -12 -8 -30 -4 -29 5 -30 4 -24 -22 27 -110 150&#10;-364 183 -377 7 -3 22 2 33 12 18 16 22 15 84 -15 59 -30 103 -40 116 -27 3 3&#10;-3 36 -14 73 -88 314 -119 438 -116 465 2 25 11 36 40 52 32 17 36 23 31 47&#10;-5 23 -2 28 15 28 22 0 24 -10 37 -249 5 -87 12 -118 41 -190 46 -113 82 -165&#10;117 -169 15 -2 27 -2 27 0 0 2 -32 83 -70 178 l-71 175 1 315 c1 581 24 1287&#10;51 1553 8 76 8 112 0 121 -7 8 -8 29 -3 57 7 43 9 45 62 62 30 10 123 34 205&#10;53 83 19 176 43 207 53 74 25 158 81 182 121 l18 32 -38 39 c-32 33 -36 41&#10;-24 49 8 5 27 10 42 10 53 0 41 46 -18 66 -45 16 -52 16 -79 3z m-5 -108 c0&#10;-15 -12 -20 -62 -28 -35 -6 -64 -10 -65 -9 0 0 -3 10 -5 21 -2 16 4 21 32 26&#10;72 13 100 10 100 -10z m-1066 -472 c15 -79 30 -71 -211 -107 -120 -18 -222&#10;-37 -228 -41 -5 -5 -37 -11 -70 -15 -59 -6 -61 -6 -83 23 -24 33 -24 33 32 51&#10;31 10 43 10 62 -1 22 -11 48 -6 217 41 105 29 208 59 227 66 48 17 47 18 54&#10;-17z m-1269 -130 c24 -26 31 -40 24 -50 -5 -8 -6 -47 -2 -89 8 -92 8 -192 0&#10;-214 -8 -19 -58 -21 -88 -3 -17 10 -22 9 -30 -5 -17 -31 -119 -15 -138 21 -5&#10;9 -8 79 -7 156 2 152 16 205 56 205 11 0 20 3 20 8 0 4 29 7 65 7 62 0 68 -2&#10;100 -36z m-598 -11 l42 -43 6 -114 c3 -63 8 -118 11 -123 14 -23 20 11 22 119&#10;2 156 8 170 80 179 36 4 62 3 74 -5 10 -6 24 -11 31 -11 17 0 48 -37 57 -69 4&#10;-14 7 -83 8 -153 1 -142 8 -131 -80 -143 -28 -4 -49 -2 -53 5 -4 7 -12 7 -27&#10;-1 -29 -16 -67 -3 -74 25 -8 31 -34 43 -41 18 -6 -23 -63 -52 -102 -52 -16 0&#10;-46 -7 -66 -16 -59 -24 -80 -10 -90 63 -11 76 -14 122 -18 212 l-2 75 40 28&#10;c22 16 60 32 85 37 25 5 47 9 50 10 3 1 25 -18 47 -41z m849 21 c3 -5 14 -9&#10;25 -9 10 0 19 -6 19 -14 0 -7 6 -19 14 -25 14 -12 32 -149 29 -216 0 -16 -1&#10;-43 -2 -58 -1 -32 -41 -77 -68 -77 -17 1 -17 2 1 15 19 15 19 15 -3 15 -12 0&#10;-34 -6 -49 -14 -28 -14 -92 -15 -124 -2 -16 7 -26 27 -35 66 -2 8 -5 58 -8&#10;111 -2 52 -5 99 -7 105 -1 5 16 28 39 52 23 23 40 42 37 42 -3 0 -3 4 1 9 7&#10;12 124 11 131 0z m195 -86 c16 -10 29 -21 29 -25 0 -4 7 -8 15 -8 9 0 20 -11&#10;25 -25 5 -14 16 -28 25 -31 8 -3 25 -26 37 -51 13 -25 28 -48 35 -50 15 -6 8&#10;-68 -13 -108 -23 -44 -89 -88 -119 -81 -14 4 -25 13 -25 21 0 8 -4 15 -10 15&#10;-5 0 -10 6 -10 14 0 8 -13 17 -29 21 -16 3 -31 12 -33 18 -3 7 -4 71 -3 143 1&#10;164 12 185 76 147z m-1333 -45 c21 -27 43 -113 49 -197 6 -87 5 -88 -22 -113&#10;-23 -22 -32 -25 -52 -17 -21 8 -28 5 -45 -16 -11 -14 -28 -25 -38 -25 -10 0&#10;-39 -24 -64 -52 -44 -51 -46 -52 -41 -23 2 17 7 51 10 77 3 26 10 50 14 53 10&#10;5 29 -15 29 -30 0 -5 5 -11 11 -13 19 -6 12 15 -15 47 -24 29 -25 34 -14 62 7&#10;16 10 32 7 35 -18 18 71 183 118 216 16 12 41 9 53 -4z m1556 -289 c-3 -5 -1&#10;-9 5 -9 5 0 13 -14 16 -32 4 -18 12 -40 18 -50 16 -25 2 -33 -30 -18 -26 12&#10;-27 13 -8 21 16 6 14 8 -12 8 -19 1 -42 10 -53 21 l-20 20 26 25 c15 14 23 25&#10;19 25 -4 0 -2 7 6 16 12 14 14 14 26 -2 7 -9 10 -21 7 -25z m-1274 -3 c0 -2&#10;-7 -7 -16 -10 -8 -3 -12 -2 -9 4 6 10 25 14 25 6z m346 -41 c-14 -21 -14 -25&#10;-1 -32 12 -7 12 -10 -4 -20 -16 -10 -18 -9 -14 8 4 13 0 19 -11 19 -13 0 -10&#10;6 11 25 35 31 39 31 19 0z m-1250 -1 c-15 -38 -161 -246 -223 -317 -173 -197&#10;-418 -368 -437 -304 -3 6 -7 96 -10 200 l-5 187 29 33 c54 62 206 126 430 180&#10;142 35 140 35 184 36 31 1 37 -2 32 -15z m848 8 c3 -5 -1 -9 -9 -9 -8 0 -12 4&#10;-9 9 3 4 7 8 9 8 2 0 6 -4 9 -8z m46 4 c0 -3 -4 -8 -10 -11 -5 -3 -10 -1 -10&#10;4 0 6 5 11 10 11 6 0 10 -2 10 -4z m90 -7 c0 -8 5 -8 15 1 15 13 25 9 61 -26&#10;16 -14 12 -56 -5 -62 -8 -3 -11 0 -7 6 3 6 2 13 -4 17 -5 3 -10 0 -10 -7 0 -9&#10;-3 -9 -10 2 -9 13 -10 13 -10 0 -1 -11 -6 -8 -20 9 -11 13 -20 18 -20 11 0 -7&#10;-7 -10 -14 -7 -9 4 -13 1 -10 -7 3 -7 -4 -21 -16 -31 -12 -11 -20 -13 -20 -6&#10;0 7 -5 9 -12 5 -8 -5 -9 -1 -5 12 5 14 2 12 -13 -6 -11 -14 -20 -29 -20 -34 0&#10;-6 7 -1 15 10 11 15 14 16 15 3 0 -8 -13 -25 -30 -37 -29 -22 -30 -22 -30 -3&#10;0 11 -5 23 -11 26 -6 5 -4 12 8 21 17 13 17 14 -2 8 -20 -7 -20 -7 1 13 11 11&#10;30 26 42 32 12 6 21 17 19 23 -2 12 51 30 65 22 4 -3 8 0 8 5 0 6 5 11 10 11&#10;6 0 10 -5 10 -11z m499 -2 c10 3 22 -1 26 -7 5 -9 1 -10 -14 -5 -15 5 -21 2&#10;-21 -9 0 -9 -4 -16 -10 -16 -5 0 -10 12 -9 28 0 15 3 22 5 16 3 -7 13 -10 23&#10;-7z m238 7 c-3 -3 -12 -4 -19 -1 -8 3 -5 6 6 6 11 1 17 -2 13 -5z m-287 -35&#10;c0 -22 38 -27 58 -7 15 15 16 3 1 -23 -9 -17 -60 -46 -66 -37 -2 2 -10 -7 -18&#10;-19 -9 -13 -23 -23 -31 -23 -8 0 -19 -11 -24 -25 -5 -14 -16 -25 -24 -25 -16&#10;0 -29 44 -21 71 8 23 -8 25 -25 4 -7 -9 -15 -13 -18 -10 -6 6 37 45 50 45 5 0&#10;6 -4 3 -10 -9 -14 18 -12 34 3 11 10 12 9 5 -3 -5 -8 -10 -23 -11 -34 -3 -16&#10;-1 -17 12 -6 8 7 12 16 9 21 -3 5 0 9 6 9 7 0 9 8 5 20 -4 11 -2 20 4 20 6 0&#10;10 -5 9 -12 -2 -6 6 -13 17 -15 17 -4 18 -2 5 7 -12 9 -8 11 20 6 30 -4 32 -3&#10;13 6 -12 6 -23 22 -25 39 -3 15 -1 26 4 23 4 -3 8 -14 8 -25z m-145 11 c-3 -5&#10;-11 -10 -16 -10 -6 0 -7 5 -4 10 3 6 11 10 16 10 6 0 7 -4 4 -10z m305 2 c0&#10;-5 -7 -9 -15 -9 -8 0 -12 4 -9 9 3 4 9 8 15 8 5 0 9 -4 9 -8z m95 -2 c8 -13&#10;-5 -13 -25 0 -13 8 -13 10 2 10 9 0 20 -4 23 -10z m-295 -15 c0 -12 -19 -12&#10;-23 0 -4 9 -1 12 9 8 7 -3 14 -7 14 -8z m371 1 c-10 -12 -51 -11 -51 1 0 3 9&#10;3 20 0 11 -3 20 -1 20 4 0 5 5 9 11 9 8 0 8 -4 0 -14z m-1021 0 c0 -3 -4 -8&#10;-10 -11 -5 -3 -10 -1 -10 4 0 6 5 11 10 11 6 0 10 -2 10 -4z m390 -6 c0 -5 -8&#10;-10 -17 -10 -15 0 -16 2 -3 10 19 12 20 12 20 0z m60 0 c0 -5 -5 -10 -11 -10&#10;-5 0 -7 5 -4 10 3 6 8 10 11 10 2 0 4 -4 4 -10z m120 2 c0 -5 -7 -9 -15 -9 -8&#10;0 -12 4 -9 9 3 4 9 8 15 8 5 0 9 -4 9 -8z m248 -8 c10 -11 17 -13 20 -6 2 6&#10;14 -1 27 -16 14 -15 25 -21 25 -14 0 6 -4 12 -10 12 -5 0 -10 5 -10 11 0 8 4&#10;8 13 2 16 -12 59 -14 52 -2 -4 5 -2 9 4 9 5 0 12 -6 15 -12 5 -10 7 -10 12 -1&#10;7 16 34 5 28 -12 -3 -7 5 -15 18 -19 34 -9 38 -8 32 12 -5 14 -4 15 5 2 10&#10;-13 13 -13 25 3 14 18 15 18 35 -2 12 -12 21 -25 21 -29 0 -4 9 -8 20 -8 15 0&#10;18 5 14 22 -5 19 -2 22 15 17 11 -3 18 -9 15 -14 -3 -5 1 -9 9 -9 8 0 28 -14&#10;45 -31 22 -22 31 -44 36 -82 9 -62 14 -71 31 -57 10 8 19 5 37 -14 12 -13 34&#10;-26 48 -28 17 -2 26 -10 28 -25 3 -18 0 -22 -14 -16 -10 3 -26 15 -36 25 -15&#10;15 -21 16 -38 6 -21 -13 -21 -13 -1 -16 11 -2 31 -16 45 -32 32 -38 25 -70&#10;-15 -70 -30 0 -36 9 -18 27 12 12 -4 53 -21 53 -13 0 -13 -13 1 -27 12 -12 3&#10;-53 -12 -53 -13 0 -11 -64 3 -78 9 -9 7 -12 -9 -12 -16 0 -20 -5 -16 -20 3&#10;-13 0 -20 -8 -20 -8 0 -25 -3 -39 -6 l-25 -5 25 14 c21 13 24 21 21 59 -3 42&#10;-23 78 -45 78 -6 0 -24 -7 -39 -15 -15 -8 -34 -11 -43 -8 -12 4 -10 8 8 17 22&#10;11 27 43 9 56 -7 6 -30 69 -36 102 -6 31 -47 130 -51 125 -3 -2 3 -20 11 -40&#10;17 -41 20 -91 5 -82 -15 9 -12 -4 5 -21 17 -18 20 -34 5 -34 -5 0 -10 5 -10&#10;10 0 6 -10 21 -22 33 -13 12 -40 48 -61 79 -21 31 -49 64 -63 73 -29 19 -33&#10;41 -5 25 11 -5 27 -17 36 -26 9 -9 19 -14 22 -11 7 7 -12 27 -48 51 -24 15&#10;-28 15 -42 2 -13 -13 -19 -13 -50 4 -20 11 -43 17 -52 14 -8 -3 -23 -3 -32 1&#10;-16 6 -15 8 5 16 13 5 20 13 17 19 -10 16 5 12 23 -6z m328 -9 c-1 -23 -16&#10;-37 -16 -16 0 5 -3 16 -6 25 -4 10 -1 16 9 16 10 0 14 -9 13 -25z m-536 0 c0&#10;-8 -7 -15 -15 -15 -26 0 -18 20 13 29 1 1 2 -6 2 -14z m-208 -39 c13 8 9 -6&#10;-5 -21 -12 -11 -16 -10 -27 5 -7 10 -20 16 -29 13 -12 -4 -13 -3 -3 4 8 6 10&#10;17 5 28 -5 15 0 13 22 -7 16 -15 32 -25 37 -22z m645 38 c-3 -3 -12 -4 -19 -1&#10;-8 3 -5 6 6 6 11 1 17 -2 13 -5z m-977 -8 c0 -2 -8 -10 -17 -17 -16 -13 -17&#10;-12 -4 4 13 16 21 21 21 13z m414 -29 c-5 -13 -44 -41 -44 -31 0 5 41 43 47&#10;44 1 0 0 -6 -3 -13z m17 -34 c-10 -36 -6 -43 24 -43 13 0 27 -10 35 -25 7 -14&#10;18 -25 23 -25 5 0 4 -6 -2 -14 -9 -10 -8 -15 4 -19 16 -7 19 -83 3 -93 -4 -3&#10;-8 0 -8 5 0 6 -5 11 -11 11 -6 0 -9 -7 -5 -15 3 -9 -3 -19 -14 -25 -17 -9 -19&#10;-8 -13 7 6 16 5 16 -11 4 -10 -9 -20 -11 -24 -5 -4 5 -18 9 -31 9 -14 0 -26 6&#10;-29 13 -2 6 1 12 7 12 13 0 15 36 2 44 -4 3 -8 -4 -7 -16 0 -12 -5 -23 -13&#10;-26 -10 -3 -11 2 -6 18 5 15 4 20 -4 16 -14 -9 -14 0 0 26 8 15 8 22 -1 28 -9&#10;5 -9 9 -1 14 6 4 11 2 11 -4 0 -6 5 -8 10 -5 14 9 13 -8 -2 -23 -7 -7 -8 -12&#10;-2 -12 6 0 19 9 28 19 10 11 31 23 47 26 16 4 31 10 34 15 3 4 -11 4 -30 0&#10;-27 -6 -35 -5 -35 6 0 8 6 14 13 14 6 1 2 9 -10 19 -13 11 -23 25 -23 33 0 10&#10;3 9 10 -2 5 -8 10 -12 11 -7 5 24 20 59 25 54 2 -2 0 -17 -5 -34z m-1171 15&#10;c0 -31 -154 -253 -252 -362 -135 -152 -392 -326 -480 -326 -15 0 -19 6 -16 28&#10;2 21 22 41 88 90 342 255 524 415 595 525 35 52 65 74 65 45z m2158 -26 c-4&#10;-2 -17 2 -29 8 -16 9 -18 14 -9 20 7 4 19 1 29 -9 9 -9 14 -17 9 -19z m-1594&#10;17 c4 6 12 11 18 11 7 0 2 -9 -10 -20 -27 -25 -27 -25 -29 2 -2 16 0 19 6 9 6&#10;-9 11 -10 15 -2z m176 -8 c13 -24 3 -52 -16 -44 -18 7 -18 -2 0 -30 13 -20 12&#10;-28 -15 -84 -29 -63 -53 -91 -47 -57 2 11 8 22 13 27 7 5 7 10 0 15 -17 12&#10;-16 32 3 32 14 0 15 2 2 10 -22 14 -52 -27 -46 -61 3 -15 -1 -35 -9 -45 -10&#10;-13 -14 -15 -15 -5 0 11 -3 11 -15 1 -12 -10 -15 -10 -15 0 0 6 9 14 20 17 21&#10;6 26 18 11 27 -10 7 -7 68 5 88 4 7 -2 4 -13 -7 -12 -12 -16 -23 -10 -27 14&#10;-8 -12 -70 -25 -62 -6 4 -8 26 -5 50 3 31 1 42 -7 37 -6 -4 -4 2 4 12 10 13&#10;12 19 4 22 -14 5 9 57 29 70 17 11 50 12 68 2 11 -6 22 -2 34 11 23 25 32 25&#10;45 1z m1240 9 c0 -5 -4 -10 -9 -10 -6 0 -13 5 -16 10 -3 6 1 10 9 10 9 0 16&#10;-4 16 -10z m-1500 -20 c0 -5 -5 -10 -11 -10 -5 0 -7 5 -4 10 3 6 8 10 11 10 2&#10;0 4 -4 4 -10z m732 -12 c-7 -7 -12 -8 -12 -2 0 14 12 26 19 19 2 -3 -1 -11 -7&#10;-17z m-712 -8 c0 -5 -5 -10 -11 -10 -5 0 -7 5 -4 10 3 6 8 10 11 10 2 0 4 -4&#10;4 -10z m1495 0 c3 -5 -1 -10 -9 -10 -8 0 -18 5 -21 10 -3 6 1 10 9 10 8 0 18&#10;-4 21 -10z m-1444 -23 c-13 -13 -26 -3 -16 12 3 6 11 8 17 5 6 -4 6 -10 -1&#10;-17z m559 7 c-15 -17 -17 -17 -23 -1 -3 8 3 14 15 14 16 2 17 -1 8 -13z m-645&#10;-4 c-3 -5 -10 -10 -16 -10 -5 0 -9 5 -9 10 0 6 7 10 16 10 8 0 12 -4 9 -10z&#10;m675 -25 c0 -22 -2 -24 -14 -13 -10 9 -11 17 -4 26 15 17 18 15 18 -13z m880&#10;5 c22 -11 40 -25 40 -30 0 -13 -17 -13 -25 0 -4 6 -11 8 -16 4 -5 -3 -7 -10&#10;-4 -15 4 -5 -3 -9 -14 -9 -12 0 -21 5 -21 11 0 5 5 7 10 4 15 -9 12 2 -6 30&#10;-20 30 -15 31 36 5z m-1540 -20 c0 -5 -9 -9 -20 -7 -31 5 -36 17 -7 17 15 0&#10;27 -4 27 -10z m65 0 c3 -5 1 -10 -4 -10 -6 0 -11 5 -11 10 0 6 2 10 4 10 3 0&#10;8 -4 11 -10z m-45 -20 c0 -5 -5 -10 -11 -10 -5 0 -7 5 -4 10 3 6 8 10 11 10 2&#10;0 4 -4 4 -10z m-89 -43 c-1 -12 -15 -9 -19 4 -3 6 1 10 8 8 6 -3 11 -8 11 -12z&#10;m59 9 c0 -3 -4 -8 -10 -11 -5 -3 -10 -1 -10 4 0 6 5 11 10 11 6 0 10 -2 10 -4z&#10;m25 -6 c3 -5 1 -10 -4 -10 -6 0 -11 5 -11 10 0 6 2 10 4 10 3 0 8 -4 11 -10z&#10;m1579 1 c7 -11 -22 -23 -35 -15 -5 3 -9 9 -9 15 0 12 37 12 44 0z m-1669 -30&#10;c15 -9 16 -11 3 -7 -13 4 -18 0 -18 -14 0 -11 -9 -28 -20 -37 -11 -10 -20 -25&#10;-20 -35 0 -20 -16 -32 -25 -18 -3 5 -1 10 6 10 8 0 8 4 1 13 -5 6 -11 29 -14&#10;49 -3 34 -1 39 26 52 17 8 33 11 36 7 3 -4 14 -13 25 -20z m1750 -1 c3 -5 2&#10;-10 -4 -10 -5 0 -13 5 -16 10 -3 6 -2 10 4 10 5 0 13 -4 16 -10z m-1700 -65&#10;c-2 -25 0 -43 4 -41 4 3 8 -6 9 -20 3 -33 -5 -30 -22 9 -13 29 -14 30 -15 8&#10;-1 -24 -2 -24 -15 -6 -8 11 -12 23 -9 28 2 4 -1 14 -7 22 -9 11 -8 18 6 32 16&#10;16 17 16 12 1 -4 -9 -1 -19 7 -21 10 -4 12 2 8 26 -4 26 -3 29 10 19 10 -9 14&#10;-27 12 -57z m35 55 c0 -5 -4 -10 -10 -10 -5 0 -10 5 -10 10 0 6 5 10 10 10 6&#10;0 10 -4 10 -10z m30 -40 c0 -5 -5 -10 -11 -10 -5 0 -7 5 -4 10 3 6 8 10 11 10&#10;2 0 4 -4 4 -10z m1268 -12 c21 -41 -1 -87 -35 -74 -16 7 -16 8 5 20 12 7 21&#10;14 19 17 -2 2 -7 16 -11 32 -8 33 6 36 22 5z m-1257 -15 c-12 -20 -14 -14 -5&#10;12 4 9 9 14 11 11 3 -2 0 -13 -6 -23z m1579 2 c9 -11 10 -19 3 -26 -7 -7 -16&#10;-2 -27 15 -13 21 -14 26 -2 26 7 0 19 -7 26 -15z m-1530 -15 c-20 -13 -33 -13&#10;-25 0 3 6 14 10 23 10 15 0 15 -2 2 -10z m-186 -26 c5 -14 4 -15 -9 -4 -17 14&#10;-19 20 -6 20 5 0 12 -7 15 -16z m125 3 c-9 -7 -19 -19 -22 -27 -4 -9 -6 -6 -3&#10;7 2 12 -1 24 -8 27 -6 2 3 5 19 5 26 0 28 -1 14 -12z m101 9 c0 -3 -4 -8 -10&#10;-11 -5 -3 -10 -1 -10 4 0 6 5 11 10 11 6 0 10 -2 10 -4z m37 -18 c-3 -8 -6 -5&#10;-6 6 -1 11 2 17 5 13 3 -3 4 -12 1 -19z m-78 -2 c-12 -10 -59 -15 -59 -6 0 5&#10;14 10 32 10 17 0 29 -2 27 -4z m1539 -32 c-1 -13 -8 -24 -14 -24 -15 0 -22 19&#10;-16 42 6 25 32 10 30 -18z m-1709 7 c14 -9 7 -31 -10 -31 -6 0 -7 5 -4 10 3 6&#10;1 10 -4 10 -6 0 -11 5 -11 10 0 12 10 13 29 1z m292 -8 c13 -16 12 -17 -3 -4&#10;-10 7 -18 15 -18 17 0 8 8 3 21 -13z m-245 -18 c8 -32 1 -40 -23 -26 -10 6&#10;-13 11 -6 11 6 0 9 9 6 20 -3 11 0 20 6 20 6 0 13 -11 17 -25z m218 9 c3 -8 2&#10;-12 -4 -9 -6 3 -10 10 -10 16 0 14 7 11 14 -7z m1186 6 c0 -5 -10 -10 -22 -10&#10;-19 0 -20 2 -8 10 19 13 30 13 30 0z m-1340 -11 c0 -15 -18 -19 -23 -6 -3 8 1&#10;14 9 14 8 0 14 -4 14 -8z m486 -9 c-16 -5 -16 -7 -2 -19 10 -9 16 -9 16 -3 0&#10;6 6 10 13 8 6 -1 9 -1 5 1 -19 11 -6 22 15 14 12 -5 21 -13 20 -18 -1 -4 13&#10;-9 30 -9 18 -1 48 -6 67 -11 29 -8 41 -6 72 14 49 30 52 29 44 -9 l-6 -33 19&#10;24 c10 14 27 26 37 27 11 2 34 6 52 9 25 5 32 2 32 -9 0 -12 5 -14 25 -6 27&#10;10 82 3 91 -11 3 -5 12 -9 21 -9 22 0 123 -79 123 -97 0 -7 6 -24 14 -36 32&#10;-50 49 -230 24 -255 -9 -9 -9 -12 1 -12 10 0 12 -11 8 -39 -3 -23 0 -44 7 -51&#10;8 -8 7 -14 -7 -21 -12 -7 -15 -17 -11 -35 7 -27 -3 -31 -32 -9 -27 20 -40 19&#10;-40 -5 0 -15 7 -20 28 -20 30 0 40 -20 11 -20 -16 -1 -16 -2 1 -15 18 -13 18&#10;-16 4 -28 -8 -6 -26 -34 -39 -60 -13 -28 -28 -46 -35 -43 -7 3 -18 -2 -24 -10&#10;-15 -17 -31 -19 -27 -3 1 6 -10 13 -25 16 -30 4 -35 -5 -15 -26 10 -11 9 -12&#10;-3 -5 -23 13 -50 15 -50 3 0 -7 -28 -10 -85 -8 -47 2 -85 1 -85 -2 0 -15 -50&#10;-15 -65 0 -13 13 -17 14 -24 2 -5 -8 -16 -11 -29 -7 -11 4 -23 2 -27 -4 -4 -6&#10;-13 -9 -21 -6 -8 3 -14 1 -14 -5 0 -6 -27 -9 -72 -7 -63 3 -73 5 -72 21 2 18&#10;1 18 -18 0 -12 -11 -35 -18 -59 -18 l-38 0 26 28 c35 36 21 35 -26 -2 -56 -45&#10;-82 -48 -103 -12 -9 17 -12 31 -7 33 6 2 1 14 -10 27 -16 18 -18 28 -10 42 7&#10;14 6 17 -5 13 -18 -7 -32 48 -18 73 7 12 6 25 -2 43 -7 14 -16 39 -19 57 -5&#10;26 -3 31 8 26 8 -3 15 -1 15 5 0 6 -6 12 -12 15 -9 3 -5 12 11 30 20 22 22 29&#10;11 42 -7 8 -10 19 -6 22 4 4 11 1 15 -6 10 -15 31 -6 31 12 -1 18 -48 49 -55&#10;37 -3 -5 -10 -10 -15 -10 -11 0 -4 38 10 55 8 9 8 14 0 17 -6 2 -8 11 -5 20 4&#10;10 13 14 23 11 11 -5 14 -2 9 10 -3 9 -1 19 5 23 6 4 8 3 4 -4 -3 -6 -2 -13 3&#10;-16 16 -10 18 27 4 56 -11 22 -10 27 3 32 9 3 21 3 27 -1 7 -3 8 -2 4 2 -4 5&#10;7 17 25 27 26 14 29 17 13 18 -12 0 -26 -5 -33 -12 -6 -6 -14 -9 -18 -6 -3 4&#10;5 12 18 19 36 19 83 61 80 72 -2 5 8 7 23 3 18 -5 25 -2 25 8 0 8 5 18 12 22&#10;7 5 8 3 3 -7 -5 -9 -1 -8 11 3 24 21 66 37 78 30 5 -3 2 -8 -8 -12z m334 16&#10;c0 -3 -4 -8 -10 -11 -5 -3 -10 -1 -10 4 0 6 5 11 10 11 6 0 10 -2 10 -4z m725&#10;-6 c4 -6 -7 -10 -24 -10 -17 0 -31 5 -31 10 0 6 11 10 24 10 14 0 28 -4 31&#10;-10z m41 -44 c15 -16 19 -46 6 -46 -8 0 -32 43 -32 55 0 9 12 5 26 -9z m-59&#10;-11 c2 -6 -6 -11 -17 -11 -11 0 -20 6 -20 14 0 15 32 13 37 -3z m-1603 -11 c9&#10;-23 7 -52 -3 -59 -6 -3 -8 4 -6 15 2 11 -3 26 -11 34 -18 18 -18 26 0 26 8 0&#10;17 -7 20 -16z m1436 6 c24 -15 7 -18 -20 -3 -14 7 -18 13 -10 13 8 0 22 -4 30&#10;-10z m-1134 -64 c-2 -6 -5 -3 -5 7 -1 10 -5 15 -11 12 -6 -4 -10 6 -10 22 l0&#10;28 15 -29 c9 -16 14 -34 11 -40z m-269 22 c-3 -8 -6 -5 -6 6 -1 11 2 17 5 13&#10;3 -3 4 -12 1 -19z m198 -18 c3 -5 1 -10 -4 -10 -6 0 -11 5 -11 10 0 6 2 10 4&#10;10 3 0 8 -4 11 -10z m1320 -30 c-4 -6 -13 -10 -22 -10 -9 0 -13 -3 -10 -7 4&#10;-3 22 -6 41 -5 22 1 36 -4 40 -13 3 -8 1 -15 -4 -15 -12 0 -3 -44 10 -48 5 -2&#10;10 -8 10 -13 0 -4 -6 -6 -14 -3 -20 8 -31 -15 -14 -29 29 -23 59 -75 48 -82&#10;-6 -4 -8 -15 -5 -26 8 -25 -19 -52 -44 -44 -10 3 -29 14 -41 25 -19 16 -38 20&#10;-97 20 -40 0 -73 2 -73 4 0 2 7 16 14 32 8 15 13 31 11 35 -3 4 -7 22 -9 40&#10;-3 19 -8 43 -12 53 -5 14 -4 17 4 12 7 -4 12 -1 12 9 0 9 13 24 30 33 31 18&#10;39 32 18 32 -7 1 3 9 22 19 31 17 38 18 63 5 15 -8 25 -19 22 -24z m-1305 -10&#10;c0 -5 -4 -10 -10 -10 -5 0 -10 5 -10 10 0 6 5 10 10 10 6 0 10 -4 10 -10z&#10;m1404 -26 c10 -25 -1 -29 -14 -5 -6 12 -7 21 -1 21 5 0 12 -7 15 -16z m-1560&#10;-5 c13 11 19 11 31 1 8 -7 15 -17 15 -22 0 -5 9 -21 20 -35 11 -14 17 -29 14&#10;-34 -3 -5 0 -9 5 -9 12 0 15 -33 5 -43 -3 -3 -17 -1 -31 4 -33 12 -37 8 -28&#10;-31 5 -21 11 -30 21 -26 10 4 14 -3 15 -27 0 -29 1 -30 9 -9 12 29 18 28 18&#10;-3 0 -14 -5 -25 -10 -25 -6 0 -7 -7 -4 -15 13 -36 -88 -39 -133 -4 -13 10 -27&#10;17 -31 14 -15 -9 -18 69 -4 81 18 15 18 24 -1 24 -8 0 -15 7 -15 15 0 18 20&#10;20 21 3 0 -10 2 -10 6 -1 2 7 -3 20 -12 29 -14 15 -14 18 0 33 8 10 15 23 15&#10;30 0 8 6 11 15 7 9 -3 15 0 15 9 0 8 -6 15 -12 15 -8 0 -5 7 6 15 15 11 22 12&#10;27 3 6 -9 11 -9 23 1z m2302 -176 l26 -58 -22 -74 -21 -74 26 -27 c18 -19 24&#10;-33 19 -42 -5 -7 -7 -23 -6 -35 2 -12 -6 -40 -17 -62 -24 -45 -20 -78 19 -179&#10;26 -69 26 -72 -14 -72 l-34 0 -6 118 c-14 252 -18 310 -26 400 -15 165 10 211&#10;56 105z m-877 -69 c17 -14 31 -34 31 -44 0 -10 7 -26 16 -35 22 -21 39 -96 24&#10;-105 -6 -4 -8 -14 -5 -22 11 -29 -17 -32 -41 -5 -12 14 -24 23 -28 20 -3 -3&#10;-24 2 -48 12 -29 11 -55 15 -85 10 -56 -8 -57 10 -3 33 30 13 40 23 40 40 0&#10;27 -11 28 -28 2 -15 -25 -30 -26 -27 -2 3 33 17 72 26 72 5 0 8 3 8 8 -6 35 2&#10;42 45 42 33 0 52 -7 75 -26z m-3048 -21 c7 -123 6 -128 -25 -131 l-29 -4 6 56&#10;c3 32 2 56 -4 56 -10 0 -12 33 -2 43 3 4 17 7 30 7 18 0 23 -6 24 -27z m1676&#10;-94 c13 -18 23 -42 23 -51 0 -17 -2 -18 -31 -3 -50 26 -55 12 -7 -19 41 -26&#10;50 -37 86 -118 2 -4 -10 -2 -26 4 -17 7 -37 8 -48 3 -15 -7 -10 -10 25 -15 47&#10;-7 101 -56 101 -91 0 -12 15 -26 40 -39 31 -16 40 -26 41 -48 0 -26 1 -25 13&#10;8 11 30 19 36 52 42 21 4 60 7 87 7 37 1 47 -2 47 -15 0 -13 3 -14 14 -5 13&#10;11 99 21 206 25 33 1 34 0 35 -41 0 -41 15 -51 15 -10 0 32 11 44 53 62 46 19&#10;104 19 141 0 17 -9 33 -12 40 -6 16 13 100 23 130 15 14 -3 28 -15 31 -25 7&#10;-22 35 -26 35 -5 0 8 -12 23 -27 34 l-28 20 25 21 c14 11 31 18 38 16 7 -3 11&#10;-1 8 4 -5 7 24 32 63 56 11 6 13 3 9 -13 -7 -26 13 -30 32 -7 10 12 8 16 -15&#10;25 -14 5 -31 10 -36 10 -15 0 12 25 36 34 19 7 19 8 -4 20 -24 13 -24 14 -3&#10;25 53 28 167 1 202 -49 35 -49 34 -174 0 -185 -10 -3 -20 -18 -24 -33 -8 -39&#10;-35 -71 -45 -54 -5 9 -11 5 -19 -13 -7 -14 -12 -32 -12 -40 0 -28 -19 -25 -27&#10;5 -13 48 -28 39 -33 -20 -5 -52 -7 -56 -43 -74 -21 -10 -56 -20 -78 -23 l-40&#10;-6 5 77 c3 43 8 82 11 87 4 5 3 14 -1 21 -4 7 -15 -24 -25 -70 -11 -49 -26&#10;-90 -38 -104 -12 -12 -21 -25 -21 -30 0 -10 -52 -36 -65 -33 -5 2 -22 6 -37 9&#10;-21 5 -28 12 -28 31 0 14 -4 25 -10 25 -5 0 -10 -11 -10 -25 0 -31 -37 -56&#10;-93 -62 -33 -4 -49 0 -77 19 -30 21 -35 29 -33 61 1 20 -2 37 -7 37 -11 0 -13&#10;-10 -10 -56 1 -35 -8 -44 -72 -68 -45 -17 -48 -16 -87 3 -22 12 -46 30 -54 41&#10;-14 20 -15 20 -19 2 -4 -12 -21 -22 -57 -30 -44 -10 -56 -9 -86 5 -19 9 -36&#10;20 -36 25 -1 4 -2 12 -3 17 -2 18 -13 21 -25 7 -11 -13 -18 -13 -49 -1 -69 25&#10;-102 46 -108 70 -3 14 -11 22 -19 19 -7 -3 -30 10 -51 28 -23 20 -35 26 -31&#10;16 4 -12 2 -15 -9 -11 -8 3 -17 16 -20 28 -3 13 -12 26 -20 29 -8 3 -14 10&#10;-14 17 0 6 7 8 17 5 15 -6 15 -5 -1 13 -37 41 -5 161 38 145 26 -10 18 9 -19&#10;45 -19 19 -36 41 -37 50 -5 46 -4 57 6 71 9 13 9 13 -6 2 -10 -8 -19 -9 -22&#10;-3 -4 5 -2 12 3 15 5 3 7 16 4 27 -8 30 29 56 75 54 29 -2 41 -10 59 -36z"/>
<path d="M2286 2245 c4 -8 8 -15 10 -15 2 0 4 7 4 15 0 8 -4 15 -10 15 -5 0&#10;-7 -7 -4 -15z"/>
<path d="M2700 2169 c0 -11 4 -18 10 -14 5 3 7 12 3 20 -7 21 -13 19 -13 -6z"/>
<path d="M2915 2250 c-3 -5 -1 -10 4 -10 6 0 11 5 11 10 0 6 -2 10 -4 10 -3 0&#10;-8 -4 -11 -10z"/>
<path d="M3141 2134 c13 -16 29 -19 29 -5 0 5 -9 11 -21 14 -16 4 -18 3 -8 -9z"/>
<path d="M3320 2141 c0 -6 4 -13 10 -16 6 -3 7 1 4 9 -7 18 -14 21 -14 7z"/>
<path d="M3278 2073 c5 -10 13 -39 16 -65 8 -56 27 -75 20 -21 -6 52 -24 103&#10;-35 103 -6 0 -6 -7 -1 -17z"/>
<path d="M3340 2083 c0 -4 5 -15 10 -23 8 -13 10 -13 10 2 0 9 -4 20 -10 23&#10;-5 3 -10 3 -10 -2z"/>
<path d="M3359 2023 c5 -11 12 -33 15 -48 3 -16 10 -33 16 -39 8 -8 9 -3 4 19&#10;-11 48 -22 73 -34 80 -9 6 -9 2 -1 -12z"/>
<path d="M3430 2000 c0 -5 5 -10 11 -10 5 0 7 5 4 10 -3 6 -8 10 -11 10 -2 0&#10;-4 -4 -4 -10z"/>
<path d="M3385 1911 c-3 -5 -1 -12 5 -16 5 -3 10 1 10 9 0 18 -6 21 -15 7z"/>
<path d="M2634 2049 c-3 -6 -3 -13 0 -16 3 -4 6 -1 6 5 0 24 19 11 25 -18 7&#10;-33 16 -37 34 -17 13 16 5 28 -14 21 -9 -4 -12 0 -9 13 4 13 -1 19 -15 20 -11&#10;1 -23 -3 -27 -8z"/>
<path d="M2585 2040 c-3 -5 -1 -10 4 -10 6 0 11 5 11 10 0 6 -2 10 -4 10 -3 0&#10;-8 -4 -11 -10z"/>
<path d="M2090 2151 c0 -6 4 -13 10 -16 6 -3 7 1 4 9 -7 18 -14 21 -14 7z"/>
<path d="M2131 2134 c0 -11 3 -14 6 -6 3 7 2 16 -1 19 -3 4 -6 -2 -5 -13z"/>
<path d="M2066 2103 c-6 -14 -5 -15 5 -6 7 7 10 15 7 18 -3 3 -9 -2 -12 -12z"/>
<path d="M2112 2100 c0 -14 2 -19 5 -12 2 6 2 18 0 25 -3 6 -5 1 -5 -13z"/>
<path d="M2141 2101 c-8 -5 -9 -11 -3 -15 5 -3 12 1 16 9 6 17 6 18 -13 6z"/>
<path d="M1800 1990 c-22 -24 -21 -36 1 -37 10 -1 19 2 19 8 0 5 -6 9 -12 9&#10;-10 0 -9 3 1 9 7 5 12 13 10 18 -2 5 -11 2 -19 -7z"/>
<path d="M2916 1779 c6 -11 41 -12 47 -1 3 4 -8 7 -24 8 -15 1 -26 -3 -23 -7z"/>
<path d="M3010 1750 c0 -5 7 -10 15 -10 8 0 15 5 15 10 0 6 -7 10 -15 10 -8 0&#10;-15 -4 -15 -10z"/>
<path d="M3050 1715 c7 -8 17 -15 22 -15 6 0 5 7 -2 15 -7 8 -17 15 -22 15 -6&#10;0 -5 -7 2 -15z"/>
<path d="M3080 1681 c0 -5 -8 -12 -17 -14 -17 -4 -17 -5 0 -6 9 0 17 -9 17&#10;-18 0 -10 12 -23 26 -30 25 -12 25 -12 10 12 -9 13 -16 31 -16 39 0 8 -4 18&#10;-10 21 -5 3 -10 2 -10 -4z"/>
<path d="M2330 1655 c-14 -8 -20 -14 -14 -15 5 0 19 7 30 15 24 18 16 19 -16&#10;0z"/>
<path d="M2210 1531 c0 -6 5 -11 11 -11 8 0 8 -5 -1 -15 -7 -8 -25 -15 -41&#10;-15 -16 0 -29 -5 -29 -11 0 -5 5 -7 10 -4 6 4 18 1 26 -6 9 -7 26 -14 37 -16&#10;17 -2 19 -1 8 6 -12 8 -13 15 -3 35 9 19 8 27 -4 36 -10 9 -14 9 -14 1z"/>
<path d="M2305 1470 c-22 -11 -51 -30 -65 -41 -18 -15 -9 -12 30 8 30 16 66&#10;35 80 41 14 6 18 11 10 11 -8 1 -33 -8 -55 -19z"/>
<path d="M3090 1310 c8 -5 22 -10 30 -10 13 0 13 1 0 10 -8 5 -22 10 -30 10&#10;-13 0 -13 -1 0 -10z"/>
<path d="M2990 1230 c0 -6 7 -10 15 -10 8 0 15 2 15 4 0 2 -7 6 -15 10 -8 3&#10;-15 1 -15 -4z"/>
<path d="M2920 1120 c14 -11 29 -20 34 -20 5 0 -3 9 -17 20 -14 11 -29 20 -34&#10;20 -4 0 3 -9 17 -20z"/>
<path d="M3080 1130 c0 -5 4 -10 9 -10 6 0 13 5 16 10 3 6 -1 10 -9 10 -9 0&#10;-16 -4 -16 -10z"/>
<path d="M2995 1110 c21 -24 26 -25 19 -6 -3 8 -13 17 -22 21 -13 5 -13 2 3&#10;-15z"/>
<path d="M3300 1561 c0 -27 91 -43 106 -20 5 8 -2 10 -22 6 -16 -3 -41 1 -56&#10;9 -16 8 -28 10 -28 5z"/>
<path d="M2005 1550 c3 -5 8 -10 11 -10 2 0 4 5 4 10 0 6 -5 10 -11 10 -5 0&#10;-7 -4 -4 -10z"/>
<path d="M3420 1009 c0 -5 5 -7 10 -4 6 3 10 8 10 11 0 2 -4 4 -10 4 -5 0 -10&#10;-5 -10 -11z"/>
<path d="M2105 980 c-3 -5 -2 -10 4 -10 5 0 13 5 16 10 3 6 2 10 -4 10 -5 0&#10;-13 -4 -16 -10z"/>
<path d="M2063 905 c0 -22 2 -30 4 -17 2 12 2 30 0 40 -3 9 -5 -1 -4 -23z"/>
<path d="M6848 3355 c-13 -29 -58 -35 -78 -10 -14 17 -50 20 -50 4 0 -43 52&#10;-65 114 -48 37 10 73 50 61 69 -11 18 -35 11 -47 -15z"/>
<path d="M6841 3158 c-37 -79 -60 -116 -64 -106 -3 9 -11 54 -18 100 -6 45&#10;-16 88 -21 94 -9 13 -48 7 -48 -7 0 -17 41 -285 46 -301 14 -45 52 -3 104 112&#10;43 97 56 118 65 108 3 -3 11 -47 18 -99 12 -91 13 -94 40 -97 33 -4 33 -8 7&#10;163 -11 72 -20 136 -20 143 0 6 -12 12 -26 12 -23 0 -31 -13 -83 -122z"/>
<path d="M6505 3110 c-37 -75 -62 -115 -66 -107 -4 7 -13 50 -19 97 -6 46 -14&#10;88 -16 92 -5 8 -54 11 -54 3 0 -14 42 -293 46 -307 6 -19 21 -23 41 -10 6 4&#10;37 61 68 127 32 66 59 116 61 110 2 -5 10 -55 19 -110 9 -54 18 -101 20 -104&#10;3 -2 15 1 28 6 l23 11 -17 108 c-9 60 -20 130 -24 157 -5 40 -9 47 -29 47 -19&#10;0 -32 -19 -81 -120z"/>
<path d="M6097 3160 c-27 -5 -51 -11 -54 -14 -3 -3 5 -75 17 -161 26 -175 15&#10;-163 125 -140 115 24 151 94 82 159 -31 30 -32 32 -18 57 12 22 13 31 1 58&#10;-20 49 -52 58 -153 41z m101 -76 c3 -35 -9 -49 -54 -58 -29 -7 -32 -5 -38 25&#10;-13 67 -11 70 42 67 44 -3 47 -5 50 -34z m23 -104 c23 -13 26 -62 4 -80 -8 -6&#10;-32 -14 -53 -17 l-39 -5 -8 47 c-5 35 -3 50 7 56 18 12 65 11 89 -1z"/>
<path d="M5803 3120 c-78 -18 -117 -72 -115 -159 2 -65 36 -141 72 -158 37&#10;-19 120 -16 160 5 53 28 72 73 67 158 -7 126 -73 181 -184 154z m79 -51 c48&#10;-26 67 -165 28 -207 -44 -47 -116 -36 -144 23 -9 18 -16 58 -16 89 0 47 4 61&#10;25 81 26 27 72 33 107 14z"/>
<path d="M5445 3063 c-16 -3 -33 -8 -37 -11 -4 -4 3 -74 15 -157 l22 -150 29&#10;-3 29 -4 -7 60 -7 59 42 7 c56 9 99 52 99 100 0 92 -50 118 -185 99z m107 -50&#10;c21 -19 24 -75 5 -92 -8 -6 -27 -14 -44 -17 -28 -5 -31 -3 -37 26 -8 42 -8 85&#10;1 93 12 13 56 7 75 -10z"/>
<path d="M5221 3029 c-24 -5 -45 -10 -46 -11 -1 -2 8 -70 21 -153 12 -82 23&#10;-153 23 -157 1 -9 45 -11 52 -3 3 2 -3 55 -12 117 -27 173 -29 164 36 173 45&#10;5 55 10 55 26 0 16 -7 19 -42 18 -24 -1 -63 -5 -87 -10z"/>
<path d="M5045 3000 c-3 -5 1 -63 10 -127 27 -203 24 -193 51 -193 30 0 30 7&#10;4 182 -11 73 -20 136 -20 141 0 11 -38 9 -45 -3z"/>
<path d="M6950 2738 c-5 -13 -12 -44 -15 -70 -7 -55 -30 -87 -65 -90 -23 -3&#10;-25 1 -35 72 -10 74 -10 75 -40 75 -28 0 -30 -3 -30 -35 1 -19 4 -56 8 -82 l8&#10;-48 -35 0 c-40 0 -63 24 -90 94 -16 42 -21 46 -50 46 -18 0 -36 -3 -39 -6 -11&#10;-11 63 -142 90 -159 25 -17 25 -17 5 -38 -23 -26 -39 -73 -48 -146 l-7 -54 33&#10;7 c19 3 35 8 37 9 1 2 9 36 16 75 15 78 37 112 72 112 25 0 29 -11 40 -103 8&#10;-64 13 -70 51 -61 24 6 26 10 21 43 -20 129 -20 131 -3 137 39 15 63 -5 102&#10;-81 l39 -76 35 6 c19 4 37 8 38 10 8 8 -75 142 -103 168 -19 18 -26 30 -19 35&#10;17 11 31 43 38 87 4 22 9 52 12 68 5 25 3 27 -25 27 -23 0 -34 -6 -41 -22z"/>
<path d="M6421 2671 c-11 -7 -12 -22 -3 -77 5 -38 7 -73 2 -77 -4 -4 -37 -13&#10;-75 -18 -79 -13 -80 -12 -90 69 -9 76 -11 79 -45 74 -37 -5 -37 -14 -10 -195&#10;33 -218 26 -197 67 -197 35 0 36 0 30 38 -3 20 -9 60 -13 88 -7 58 -10 56 97&#10;69 l57 7 12 -86 c12 -77 16 -86 34 -86 50 1 50 5 20 209 -26 177 -29 191 -48&#10;191 -12 0 -27 -4 -35 -9z"/>
<path d="M6069 2623 c-25 -4 -28 -10 -49 -111 -12 -59 -25 -111 -27 -116 -3&#10;-4 -35 38 -71 94 -55 86 -68 101 -86 96 -12 -3 -29 -6 -40 -6 -16 0 -17 -2 -5&#10;-19 93 -132 170 -254 167 -268 -3 -18 -21 -29 -60 -38 -25 -5 -27 -7 -16 -30&#10;12 -26 16 -28 63 -26 57 3 77 41 123 224 42 166 49 208 35 206 -5 -1 -20 -4&#10;-34 -6z"/>
<path d="M5598 2553 c-32 -5 -29 4 -68 -203 -17 -91 -33 -175 -35 -187 -5 -20&#10;-1 -23 29 -23 35 0 35 1 42 49 7 55 9 57 113 67 l59 7 21 -42 c18 -34 26 -41&#10;51 -41 16 0 31 4 34 9 3 5 -36 89 -86 188 -98 187 -97 186 -160 176z m77 -165&#10;c19 -37 31 -69 26 -72 -4 -3 -34 -9 -66 -12 -53 -7 -57 -6 -52 12 3 10 11 48&#10;17 84 18 101 17 101 75 -12z"/>
<path d="M5240 2499 c-109 -17 -98 2 -102 -175 l-3 -156 -28 -22 c-23 -19 -27&#10;-28 -21 -50 6 -24 10 -27 33 -21 68 17 83 55 90 225 l6 135 43 9 c23 5 45 7&#10;47 4 3 -3 14 -67 25 -144 29 -197 25 -184 65 -184 19 0 35 2 35 5 0 15 -52&#10;352 -56 368 -6 19 -41 21 -134 6z"/>
<path d="M7115 2079 c-16 -4 -63 -7 -104 -8 -40 0 -92 -6 -113 -13 -36 -11&#10;-41 -10 -50 7 -10 17 -12 17 -29 -6 l-19 -24 -6 23 c-6 20 -13 22 -65 22 -63&#10;0 -76 -13 -34 -32 42 -19 30 -43 -45 -90 -38 -24 -70 -50 -70 -58 0 -45 22&#10;-89 55 -109 19 -11 35 -25 35 -30 0 -5 10 -11 23 -13 21 -3 22 -8 24 -85 1&#10;-48 -2 -83 -7 -83 -6 0 -10 9 -10 20 0 11 -5 20 -11 20 -8 0 -9 -11 -5 -31 3&#10;-17 6 -37 7 -43 0 -6 4 -2 9 9 8 18 9 17 9 -7 1 -19 -4 -28 -14 -28 -11 0 -15&#10;-13 -17 -52 0 -29 0 -60 1 -68 2 -8 2 -51 1 -96 -1 -69 2 -83 20 -99 14 -13&#10;20 -30 20 -61 0 -48 10 -57 70 -69 l35 -6 22 73 c18 58 21 81 13 113 -5 22&#10;-12 74 -15 115 l-7 75 87 49 c165 94 236 171 287 311 20 56 26 65 48 66 14 0&#10;19 3 13 6 -10 3 -10 10 -2 25 8 14 8 23 0 31 -6 6 -11 30 -11 52 0 30 -6 47&#10;-22 62 -29 27 -84 41 -123 32z m-12 -191 c-10 -17 -52 -65 -93 -107 -89 -89&#10;-38 -59 63 38 37 35 67 62 67 59 0 -3 -11 -25 -25 -49 -57 -104 -265 -256&#10;-265 -195 0 8 12 24 28 36 22 17 23 19 4 10 -13 -7 -26 -9 -29 -6 -11 11 -15&#10;134 -5 153 6 11 28 29 49 38 47 23 159 54 196 54 l28 1 -18 -32z"/>
<path d="M6162 1980 c-34 -16 -69 -26 -81 -23 -15 4 -21 -1 -25 -18 -30 -132&#10;-31 -139 -11 -139 8 0 15 -7 15 -15 0 -8 -8 -15 -18 -15 -28 0 -57 -129 -32&#10;-145 12 -7 14 -55 2 -55 -4 0 -13 5 -20 12 -9 9 -13 8 -16 -3 -10 -29 -126&#10;-451 -126 -459 0 -4 9 -10 20 -13 18 -5 20 -10 14 -48 -5 -31 -4 -40 4 -35 7&#10;4 12 16 12 26 0 29 11 50 26 50 9 0 14 -12 14 -35 0 -30 3 -35 25 -36 14 -1&#10;30 -2 37 -3 15 -1 57 110 57 152 2 73 49 116 179 162 34 13 62 25 62 27 0 6&#10;-69 -6 -133 -24 -56 -16 -81 -13 -60 8 11 11 253 103 258 97 1 -1 6 -22 10&#10;-45 6 -37 4 -43 -12 -44 -10 0 -13 -3 -5 -6 6 -2 12 -11 12 -20 0 -10 6 -12&#10;20 -8 14 4 20 2 20 -8 0 -8 11 -40 25 -71 l25 -56 -23 -11 c-12 -7 -17 -14&#10;-10 -16 7 -3 21 1 32 7 27 14 28 -4 1 -23 -13 -9 -17 -20 -13 -35 5 -20 7 -21&#10;17 -6 10 14 19 2 55 -77 l43 -94 21 37 c23 40 37 48 37 23 0 -8 5 -15 10 -15&#10;6 0 10 2 10 3 0 11 -41 121 -64 170 -30 66 -32 74 -12 58 8 -7 18 -26 21 -42&#10;4 -16 11 -29 16 -29 9 0 5 31 -16 120 -7 30 -16 88 -20 129 -4 40 -13 85 -21&#10;99 -16 31 -14 34 49 57 26 10 47 21 47 25 0 4 -27 6 -60 6 -63 -1 -100 17 -64&#10;31 17 6 17 8 -6 13 -21 5 -34 29 -92 170 -36 91 -71 173 -77 183 -7 10 -23 17&#10;-40 17 -17 0 -41 4 -54 9 -19 8 -38 3 -85 -19z m99 -307 c34 -73 39 -90 30&#10;-110 -21 -45 -160 -88 -147 -45 3 9 17 64 31 122 26 104 32 120 41 120 3 0 23&#10;-39 45 -87z m-146 -62 c-5 -34 -12 -51 -21 -51 -18 0 -18 11 1 46 8 16 15 38&#10;15 48 0 11 3 17 6 13 3 -3 3 -29 -1 -56z m-110 -82 c-10 -15 -25 -10 -19 6 4&#10;8 10 12 15 9 5 -3 7 -10 4 -15z m295 -9 c0 -10 -46 -32 -92 -44 -47 -11 -31 8&#10;25 30 63 26 67 27 67 14z m-210 -25 c0 -8 -4 -17 -10 -20 -6 -4 -10 5 -10 20&#10;0 15 4 24 10 20 6 -3 10 -12 10 -20z m-100 -12 c0 -14 -19 -38 -25 -32 -8 8 5&#10;39 16 39 5 0 9 -3 9 -7z"/>
<path d="M5785 1940 c-33 -5 -129 -16 -214 -25 -142 -16 -156 -16 -167 -1 -15&#10;21 -17 20 -63 -8 -21 -14 -66 -30 -100 -37 -65 -12 -74 -20 -40 -36 22 -9 21&#10;-9 -9 -44 -36 -41 -28 -62 19 -52 30 6 37 -5 17 -25 -9 -9 -9 -12 1 -12 11 0&#10;12 -28 6 -142 -6 -126 -5 -141 8 -124 23 31 28 3 7 -37 -11 -20 -20 -43 -19&#10;-49 0 -7 5 -3 11 10 23 47 27 23 19 -121 -1 -10 -8 -20 -17 -24 -27 -10 -103&#10;-97 -115 -130 -18 -56 -10 -73 49 -93 30 -9 61 -24 69 -32 13 -14 11 -19 -18&#10;-46 -18 -17 -30 -34 -26 -38 4 -4 13 -2 19 4 7 7 26 12 43 12 35 0 55 15 55&#10;42 0 21 4 22 31 6 17 -11 22 -10 30 5 6 11 22 17 44 17 18 0 62 9 97 20 34 11&#10;80 20 101 20 51 0 95 22 139 68 29 29 37 48 42 87 3 28 7 59 9 70 3 13 -3 22&#10;-15 25 -12 3 -28 27 -43 64 -57 139 -119 186 -312 236 -49 12 -51 19 -32 125&#10;l11 62 166 6 c162 5 271 22 295 46 9 9 6 13 -10 17 l-22 6 21 29 c30 41 16 50&#10;-81 51 -44 1 -81 5 -81 10 0 4 15 8 34 8 32 0 106 25 106 35 0 3 -1 4 -2 4 -2&#10;-1 -30 -5 -63 -9z m-130 -160 c-44 -11 -75 -11 -75 0 0 6 23 9 53 9 44 -1 48&#10;-2 22 -9z m-174 -400 c72 -22 150 -78 182 -129 l20 -33 -29 16 c-16 9 -54 32&#10;-84 49 -30 18 -80 43 -110 56 -68 28 -80 39 -60 51 8 5 16 10 16 10 1 0 30 -9&#10;65 -20z m1 -63 c55 -25 168 -120 168 -142 0 -16 -45 -25 -130 -25 -78 0 -130&#10;15 -131 38 -3 33 3 137 8 145 7 12 30 8 85 -16z"/>
</g>
</svg>