<svg fill="#ffffff" height="200px" width="200px" version="1.1" id="Layer_1" xmlns="http://www.w3.org/2000/svg" xmlns:xlink="http://www.w3.org/1999/xlink" viewBox="0 0 512.001 512.001" xml:space="preserve" stroke="#ffffff"><g id="SVGRepo_bgCarrier" stroke-width="0"></g><g id="SVGRepo_tracerCarrier" stroke-linecap="round" stroke-linejoin="round"></g><g id="SVGRepo_iconCarrier"> <g> <g> <path d="M93.444,233.8c-0.186-0.916-0.458-1.818-0.816-2.677c-0.358-0.859-0.802-1.703-1.317-2.476 c-0.53-0.787-1.131-1.517-1.789-2.176c-0.658-0.658-1.388-1.26-2.176-1.775c-0.773-0.515-1.603-0.959-2.462-1.317 c-0.873-0.358-1.775-0.63-2.677-0.816c-1.846-0.372-3.75-0.372-5.596,0c-0.916,0.186-1.818,0.458-2.677,0.816 c-0.873,0.358-1.703,0.802-2.476,1.317c-0.787,0.515-1.517,1.116-2.176,1.775s-1.26,1.388-1.775,2.176 c-0.515,0.773-0.959,1.617-1.317,2.476c-0.358,0.859-0.63,1.76-0.816,2.677c-0.186,0.93-0.286,1.861-0.286,2.791 c0,3.779,1.531,7.457,4.194,10.12c0.658,0.673,1.388,1.26,2.176,1.789c0.773,0.515,1.603,0.959,2.476,1.317 c0.859,0.358,1.76,0.63,2.677,0.816s1.861,0.272,2.791,0.272c3.779,0,7.457-1.517,10.12-4.194 c2.662-2.662,4.194-6.341,4.194-10.12C93.716,235.661,93.63,234.73,93.444,233.8z"></path> </g> </g> <g> <g> <path d="M507.93,278.768l-0.063-98.198c-0.004-7.902-6.411-14.305-14.313-14.305c-0.001,0-0.004,0-0.006,0l-167.432,0.063 c-1.679,0-3.321,0.312-4.869,0.873c-21.962-42.15-17.691-110.884-14.821-138.575h1.582c7.905,0,14.313-6.408,14.313-14.313 S315.912,0,308.007,0H203.996c-7.905,0-14.313,6.408-14.313,14.313s6.408,14.313,14.313,14.313h1.589 c2.884,27.673,7.182,96.327-14.807,138.54c-1.547-0.573-3.213-0.9-4.96-0.9c-0.001,0-0.004,0-0.006,0l-167.433,0.062 c-3.796,0.001-7.437,1.511-10.121,4.198c-2.684,2.685-4.19,6.328-4.187,10.125l0.063,98.195 c0.01,25.589,9.984,49.643,28.086,67.731c15.227,15.215,34.674,24.648,55.698,27.264l0.019,109.52l-33.97,0.013 c-7.904,0.003-14.31,6.414-14.308,14.319c0.003,7.902,6.411,14.308,14.313,14.308c0.001,0,0.004,0,0.006,0l92.825-0.034 c0.233,0.011,0.465,0.034,0.701,0.034h214.205c0.001,0,0.004,0,0.006,0h2.784c0.007,0,0.014-0.001,0.021-0.001l93.755-0.036 c7.904-0.003,14.31-6.414,14.308-14.319c-0.003-7.902-6.411-14.308-14.313-14.308c-0.001,0-0.004,0-0.006,0L424.3,483.35 l-0.019-109.539C471.401,367.817,507.949,327.491,507.93,278.768z M201.123,203.832c2.715-3.908,5.521-7.95,8.496-12.372 c31.916-47.442,28.187-128.143,24.771-162.833h43.219c-3.417,34.688-7.145,115.391,24.772,162.832 c2.963,4.404,5.757,8.429,8.461,12.322c0.329,0.474,0.656,0.946,0.982,1.416l0.009,14.219l-55.832,67.599l-55.846-67.616v-0.268 l-0.009-13.89C200.469,204.773,200.796,204.304,201.123,203.832z M116.563,483.349l-0.019-109.537 c5.602-0.713,11.063-1.882,16.322-3.523c-0.744,30.734-0.724,68.059,0.053,113.054L116.563,483.349z M149.559,328.491 c-0.01,0.01-0.021,0.019-0.031,0.029c-1.257,1.142-2.569,2.224-3.91,3.271c-0.415,0.322-0.823,0.653-1.247,0.966 c-0.487,0.361-0.985,0.707-1.481,1.055c-0.603,0.422-1.211,0.837-1.829,1.241c-10.545,6.898-23.127,10.928-36.639,10.932h-2.179 c-0.004,0-0.009,0-0.013,0c-0.004,0-0.009,0-0.014,0h-2.252c-0.007,0-0.017,0-0.027,0c-17.933,0-34.796-6.981-47.482-19.656 c-12.693-12.684-19.687-29.55-19.694-47.497l-0.054-83.882l138.805-0.052l0.004,5.881c0,0.003,0,0.006,0,0.009l0.009,12.653 l0.006,8.808l-48.253,0.019c-7.905,0.003-14.31,6.414-14.308,14.319c0.003,7.904,6.411,14.308,14.313,14.308 c0.001,0,0.004,0,0.006,0l48.26-0.019l0.019,27.907c0,1.318-0.049,2.628-0.123,3.932c-0.026,0.435-0.066,0.866-0.099,1.3 c-0.066,0.862-0.146,1.72-0.243,2.575c-0.06,0.521-0.126,1.041-0.198,1.557c-0.104,0.749-0.226,1.493-0.355,2.234 c-0.099,0.563-0.189,1.128-0.302,1.686c-0.126,0.633-0.279,1.258-0.424,1.887c-0.326,1.411-0.69,2.81-1.105,4.185 c-0.069,0.23-0.13,0.464-0.202,0.694c-0.286,0.915-0.597,1.819-0.92,2.718c-0.062,0.172-0.123,0.345-0.186,0.517 C163.635,312.264,157.458,321.305,149.559,328.491z M350.452,483.373H161.55c-0.92-52.825-0.789-94.893,0.398-127.993 c21.417-16.068,34.978-40.06,37.72-66.569c0.019-0.172,0.036-0.344,0.053-0.515c0.143-1.454,0.256-2.916,0.333-4.384 c0.011-0.203,0.017-0.409,0.026-0.613c0.069-1.504,0.115-3.013,0.113-4.53l-0.009-14.381l44.069,53.357 c2.718,3.292,6.766,5.199,11.036,5.199h1.423c1.602,0,3.17-0.268,4.652-0.777c2.468-0.847,4.685-2.365,6.385-4.421l44.114-53.41 l0.01,14.512c0,1.433,0.043,2.86,0.106,4.281c0.011,0.273,0.021,0.548,0.036,0.822c0.07,1.337,0.169,2.668,0.295,3.993 c0.031,0.335,0.067,0.668,0.103,1.003c0.137,1.305,0.291,2.606,0.479,3.899c0.039,0.263,0.086,0.524,0.126,0.786 c0.17,1.098,0.361,2.191,0.568,3.279c0.076,0.401,0.149,0.802,0.23,1.199c0.239,1.174,0.504,2.34,0.786,3.501 c0.112,0.461,0.229,0.919,0.348,1.377c0.298,1.149,0.61,2.294,0.949,3.429c0.117,0.391,0.245,0.777,0.368,1.165 c0.295,0.939,0.603,1.872,0.925,2.8c0.132,0.379,0.258,0.759,0.394,1.137c0.418,1.154,0.863,2.296,1.324,3.431 c0.147,0.362,0.296,0.724,0.449,1.086c0.498,1.182,1.016,2.356,1.56,3.517c0.102,0.215,0.208,0.428,0.311,0.643 c1.267,2.648,2.657,5.234,4.162,7.754c0.02,0.033,0.039,0.066,0.059,0.099c4.779,7.968,10.734,15.249,17.731,21.599 c0.116,0.106,0.229,0.215,0.345,0.319c0.862,0.774,1.745,1.53,2.638,2.276c1.274,1.071,2.568,2.108,3.888,3.106 C351.24,388.463,351.372,430.543,350.452,483.373z M379.083,483.366c0.779-44.995,0.799-82.326,0.054-113.07 c5.358,1.665,10.882,2.843,16.519,3.544l0.019,109.52L379.083,483.366z M412.155,345.984h-2.179c-0.004,0-0.009,0-0.013,0 s-0.009,0-0.014,0h-2.251c-0.014,0-0.019,0-0.027,0c-12.836,0-25.114-3.594-35.713-10.276c-0.073-0.049-0.137-0.106-0.212-0.153 c-3.55-2.253-6.832-4.804-9.839-7.595c-0.253-0.236-0.502-0.477-0.753-0.716c-0.651-0.623-1.284-1.261-1.906-1.908 c-0.335-0.348-0.673-0.694-1.001-1.049c-0.585-0.634-1.149-1.282-1.708-1.937c-0.275-0.322-0.563-0.635-0.832-0.962 c-0.763-0.927-1.496-1.878-2.206-2.843c-0.278-0.376-0.54-0.764-0.809-1.146c-0.477-0.678-0.946-1.36-1.397-2.054 c-0.25-0.384-0.494-0.771-0.736-1.161c-0.485-0.782-0.953-1.573-1.406-2.373c-0.166-0.293-0.338-0.584-0.5-0.88 c-1.247-2.287-2.36-4.645-3.332-7.066c-0.082-0.203-0.157-0.409-0.238-0.614c-0.402-1.033-0.78-2.077-1.132-3.132 c-0.08-0.239-0.16-0.477-0.236-0.716c-0.374-1.165-0.72-2.342-1.031-3.53c-0.02-0.079-0.044-0.155-0.064-0.233 c-0.338-1.313-0.636-2.638-0.893-3.975c-0.026-0.136-0.046-0.275-0.072-0.412c-0.21-1.124-0.388-2.257-0.542-3.397 c-0.049-0.358-0.09-0.717-0.133-1.078c-0.115-0.966-0.205-1.938-0.278-2.914c-0.027-0.369-0.06-0.737-0.082-1.106 c-0.076-1.304-0.125-2.612-0.126-3.93l-0.034-54.282l-0.016-23.836c0-0.004,0-0.007,0-0.011l-0.004-5.753l138.807-0.049 l0.017,27.351l-48.253,0.019c-7.905,0.003-14.31,6.414-14.308,14.319c0.003,7.904,6.411,14.308,14.313,14.308 c0.001,0,0.004,0,0.006,0l48.26-0.019l0.019,27.908C479.318,315.824,449.194,345.969,412.155,345.984z"></path> </g> </g> <g> <g> <path d="M401.181,233.8c-0.186-0.916-0.458-1.818-0.816-2.677c-0.358-0.859-0.802-1.703-1.317-2.476 c-0.53-0.787-1.131-1.517-1.789-2.176s-1.388-1.26-2.176-1.775c-0.773-0.515-1.603-0.959-2.462-1.317 c-0.873-0.358-1.775-0.63-2.677-0.816c-1.846-0.372-3.75-0.372-5.597,0c-0.916,0.186-1.818,0.458-2.677,0.816 c-0.873,0.358-1.703,0.802-2.476,1.317c-0.787,0.515-1.517,1.116-2.176,1.775s-1.26,1.388-1.775,2.176 c-0.515,0.773-0.959,1.617-1.317,2.476c-0.358,0.859-0.63,1.76-0.816,2.677c-0.186,0.916-0.286,1.861-0.286,2.791 c0,0.945,0.1,1.875,0.286,2.805c0.186,0.916,0.458,1.804,0.816,2.677c0.358,0.859,0.802,1.689,1.317,2.462 c0.515,0.787,1.116,1.517,1.775,2.176c0.658,0.673,1.388,1.26,2.176,1.789c0.773,0.515,1.603,0.959,2.476,1.317 c0.859,0.358,1.761,0.63,2.677,0.816c0.916,0.186,1.861,0.272,2.791,0.272c0.93,0,1.875-0.086,2.805-0.272 c0.902-0.186,1.803-0.458,2.677-0.816c0.859-0.358,1.689-0.802,2.462-1.317c0.787-0.53,1.517-1.116,2.176-1.789 c0.658-0.658,1.26-1.388,1.789-2.176c0.515-0.773,0.959-1.603,1.317-2.462c0.358-0.873,0.63-1.761,0.816-2.677 c0.186-0.93,0.272-1.861,0.272-2.805C401.453,235.661,401.367,234.716,401.181,233.8z"></path> </g> </g> </g></svg>